<svg width="122.88000000000001" height="77.39" xmlns="http://www.w3.org/2000/svg" data-name="Layer 1">
 <defs>
  <linearGradient id="svg_3" x1="3.26667" y1="1" x2="37.8" y2="39.1334" gradientUnits="userSpaceOnUse" gradientTransform="matrix(0.027219148352742195,0,0,0.04551590979099274,118.71709060668945,-3.781848907470703)">
   <stop offset="0.25934" stop-color="#FFDB6E"/>
   <stop offset="1" stop-color="#FFBC5E"/>
  </linearGradient>
  <linearGradient id="svg_4" x1="3.26667" y1="1" x2="37.8" y2="39.1334" gradientUnits="userSpaceOnUse">
   <stop offset="0.25934" stop-color="#FFDB6E"/>
   <stop offset="1" stop-color="#FFBC5E"/>
  </linearGradient>
 </defs>
 <title>graphic-designing</title>
 <g>
  <title>Layer 1</title>
  <path stroke-width="0.25" stroke="url(#svg_4)" fill="url(#svg_3)" id="svg_1" fill-rule="evenodd" d="m2.52,71.63l12.59,0a2.19,2.19 0 0 1 -1.63,-2.1l0,-51.53a2.18,2.18 0 0 1 2.18,-2.17l13.8,0l-0.89,3.58l-11.2,0l0,49.5l87.86,0l0,-49.51l-11,0l-1,-3.58l13.46,0a2.17,2.17 0 0 1 2.13,2.18l0,51.52a2.17,2.17 0 0 1 -1.63,2.1l13.17,0c3.36,0 3.36,5.77 0,5.77l-117.84,0c-3.36,0 -3.36,-5.76 0,-5.76zm55.19,-71.63l8.58,0a1.15,1.15 0 0 1 1.15,1.15l0,2.85l13.56,0a4.57,4.57 0 0 1 1.1,-1.75l0,0a4.64,4.64 0 0 1 6.58,0l0,0a4.64,4.64 0 0 1 0,6.58l0,0a4.64,4.64 0 0 1 -6.58,0l0,0a4.61,4.61 0 0 1 -1.1,-1.83l-7,0a25.23,25.23 0 0 1 6.06,4.89a27.14,27.14 0 0 1 6.66,13.81l1.88,0a1.37,1.37 0 0 1 1.4,1.38l0,6.29a1.37,1.37 0 0 1 -1.37,1.38l-6.25,0a1.38,1.38 0 0 1 -1.38,-1.38l0,-6.29a1.38,1.38 0 0 1 1.38,-1.38l1.44,0a24.26,24.26 0 0 0 -5.88,-11.85a22.1,22.1 0 0 0 -10.5,-6.47l0,2.45a1.15,1.15 0 0 1 -1.15,1.17l-8.58,0a1.14,1.14 0 0 1 -1.15,-1.15l0,-2.47a22,22 0 0 0 -10.7,6.74a24.57,24.57 0 0 0 -5.65,11.58l1.41,0a1.38,1.38 0 0 1 1.38,1.38l0,6.29a1.38,1.38 0 0 1 -1.38,1.38l-6.22,0a1.38,1.38 0 0 1 -1.4,-1.38l0,-6.29a1.38,1.38 0 0 1 1.4,-1.38l1.91,0a27.42,27.42 0 0 1 6.42,-13.47a25.13,25.13 0 0 1 6.27,-5.23l-8.09,0a4.53,4.53 0 0 1 -1.1,1.74l0,0a4.63,4.63 0 0 1 -3.29,1.37a4.7,4.7 0 0 1 -3.3,-1.37l0,0a4.64,4.64 0 0 1 0,-6.58l0,0a4.64,4.64 0 0 1 6.58,0l0,0a4.57,4.57 0 0 1 1.11,1.84l14.65,0l0,-2.85a1.14,1.14 0 0 1 1.15,-1.15zm16.95,40.74l-4.45,11.38l-16.41,-0.21l-4.54,-11.17c3.9,-7 7.87,-15.49 9.91,-23l2.16,0.24l-0.08,20.12a2.12,2.12 0 1 0 1.29,-0.05l0.06,-19.91l2.48,-0.14c1.81,7.51 5.74,16 9.58,22.71l0,0.03zm-4.84,16.26l-15.94,0l0,-3.18l15.94,0l0,3.18zm-11.95,15.58l7.13,0c1.61,0 1.61,3.13 0,3.13l-7.13,0c-1.61,0 -1.62,-3.13 0,-3.13z" class="cls-1"/>
 </g>
</svg>