<svg width="512" height="469.84" xmlns="http://www.w3.org/2000/svg" clip-rule="evenodd" fill-rule="evenodd" image-rendering="optimizeQuality" text-rendering="geometricPrecision" shape-rendering="geometricPrecision">
 <defs>
  <linearGradient gradientTransform="matrix(1,0,0,1,665.0908660888672,-154.80728149414062)" gradientUnits="userSpaceOnUse" y2="39.1334" x2="37.8" y1="1" x1="3.26667" id="svg_3">
   <stop stop-color="#FFDB6E" offset="0.25934"/>
   <stop stop-color="#FFBC5E" offset="1"/>
  </linearGradient>
  <linearGradient gradientUnits="userSpaceOnUse" y2="39.1334" x2="37.8" y1="1" x1="3.26667" id="svg_2">
   <stop stop-color="#FFDB6E" offset="0.25934"/>
   <stop stop-color="#FFBC5E" offset="1"/>
  </linearGradient>
 </defs>
 <g>
  <title>Layer 1</title>
  <path stroke-width="0.25" stroke="url(#svg_2)" fill="url(#svg_3)" id="svg_1" d="m256,0c33.42,0 63.7,13.56 85.62,35.47c21.91,21.91 35.47,52.19 35.47,85.62c0,33.42 -13.56,63.7 -35.47,85.62c-21.92,21.91 -52.2,35.47 -85.62,35.47c-33.44,0 -63.71,-13.56 -85.62,-35.47c-21.92,-21.92 -35.47,-52.2 -35.47,-85.62c0,-33.43 13.55,-63.71 35.47,-85.62c21.91,-21.91 52.18,-35.47 85.62,-35.47zm112.25,211.61l27.48,28.98c11.45,-6.73 24.79,-10.58 39.03,-10.58c21.29,0 40.6,8.65 54.59,22.62l0.04,0.05c13.97,13.98 22.61,33.28 22.61,54.57c0,21.33 -8.65,40.64 -22.63,54.62l-0.39,0.36c-13.96,13.76 -33.11,22.26 -54.22,22.26c-21.33,0 -40.64,-8.65 -54.62,-22.62l-0.36,-0.4c-13.76,-13.96 -22.26,-33.11 -22.26,-54.22c0,-21.24 8.6,-40.5 22.51,-54.48l-25.25,-26.62a141.503,141.503 0 0 0 13.47,-14.54zm-208.41,16.95l-27.94,38.83c13.95,13.97 22.57,33.24 22.57,54.53c0,21.33 -8.65,40.64 -22.62,54.61l-0.4,0.37c-13.94,13.75 -33.1,22.25 -54.22,22.25c-21.32,0 -40.64,-8.65 -54.61,-22.62l-0.36,-0.39c-13.76,-13.95 -22.26,-33.1 -22.26,-54.22c0,-21.33 8.65,-40.64 22.62,-54.61c13.97,-13.97 33.29,-22.62 54.61,-22.62c14.24,0 27.58,3.86 39.04,10.59l29.59,-41.11c2.6,3.08 5.32,6.05 8.16,8.89c1.89,1.88 3.83,3.72 5.82,5.5zm106.07,36.41l0,51.04c17.35,2.22 32.9,10.21 44.67,21.98c14,14.01 22.65,33.31 22.65,54.62c0,21.33 -8.65,40.64 -22.62,54.61l-0.39,0.37c-13.95,13.75 -33.1,22.25 -54.22,22.25c-21.33,0 -40.64,-8.65 -54.61,-22.62l-0.37,-0.39c-13.75,-13.95 -22.25,-33.1 -22.25,-54.22c0,-21.31 8.64,-40.61 22.62,-54.59c11.77,-11.79 27.33,-19.79 44.69,-22.01l0,-51.04c3.28,0.22 6.59,0.34 9.92,0.34s6.63,-0.12 9.91,-0.34zm-238.22,98.11l3.65,-2.81c8.24,-4.88 20.68,-3.6 28.79,-9.26c0.48,-0.73 1,-1.78 1.5,-2.92c0.77,-1.73 1.45,-3.61 1.89,-4.9c-1.84,-2.17 -3.42,-4.62 -4.93,-7.03l-5,-7.94c-1.81,-2.72 -2.77,-5.21 -2.83,-7.25c-0.03,-0.96 0.13,-1.83 0.49,-2.6c0.37,-0.81 0.94,-1.47 1.72,-1.99c0.36,-0.25 0.77,-0.46 1.21,-0.62c-0.33,-4.3 -0.44,-9.72 -0.24,-14.27c0.1,-1.07 0.32,-2.15 0.62,-3.23c1.28,-4.55 4.46,-8.22 8.43,-10.74c2.17,-1.39 4.57,-2.43 7.06,-3.14c1.59,-0.45 -1.35,-5.52 0.29,-5.69c7.93,-0.82 20.75,6.42 26.28,12.41c2.77,3 4.51,6.98 4.89,12.23l-0.31,12.95c1.38,0.42 2.28,1.3 2.63,2.72c0.4,1.58 -0.03,3.8 -1.37,6.82c-0.02,0.05 -0.05,0.11 -0.09,0.16l-5.68,9.37c-2.09,3.44 -4.21,6.9 -6.98,9.61c0.25,0.36 0.51,0.72 0.75,1.09c1.13,1.65 2.27,3.31 3.71,4.78c0.05,0.05 0.1,0.1 0.13,0.15c6.54,4.62 22.48,5.75 28.6,9.16l0.24,0.14l3.58,2.84c9.3,-11.17 14.91,-25.53 14.91,-41.2c0,-17.78 -7.22,-33.89 -18.86,-45.54c-11.64,-11.64 -27.75,-18.85 -45.54,-18.85c-17.78,0 -33.88,7.21 -45.53,18.86c-11.65,11.64 -18.86,27.75 -18.86,45.53c0,15.65 5.58,30 14.85,41.16zm360.54,-11.27c4.24,-7.85 20.35,-8.76 29.51,-14.25c7.03,-4.22 5.83,-8.46 5.79,-15.45l-11.16,0c-28.98,0 -9.9,2.28 -5.96,-29.22c5.9,-44.49 50.71,-44.53 57.32,0c4.24,30.31 22.41,29.22 -5.96,29.22l-11.32,0c-0.05,7.71 -1.25,11.66 6.76,15.99c6.85,3.72 23.74,5.88 28.38,13.35c10.89,-11.53 17.57,-27.09 17.57,-44.2c0,-17.8 -7.2,-33.91 -18.85,-45.55c-11.65,-11.65 -27.75,-18.85 -45.55,-18.85c-17.78,0 -33.89,7.21 -45.54,18.86c-11.66,11.63 -18.86,27.74 -18.86,45.54c0,17.3 6.8,33.01 17.87,44.56zm-181.77,81.96l3.64,-2.81c8.25,-4.88 20.69,-3.6 28.79,-9.26c0.49,-0.73 1.01,-1.78 1.51,-2.92c0.76,-1.73 1.44,-3.61 1.88,-4.9c-1.84,-2.17 -3.42,-4.62 -4.93,-7.03l-4.99,-7.94c-1.82,-2.72 -2.77,-5.21 -2.83,-7.25c-0.03,-0.96 0.13,-1.83 0.49,-2.6c0.37,-0.81 0.94,-1.47 1.71,-1.99c0.37,-0.25 0.77,-0.46 1.21,-0.62c-0.32,-4.31 -0.44,-9.72 -0.23,-14.27c0.1,-1.07 0.32,-2.15 0.62,-3.23c1.27,-4.55 4.46,-8.22 8.42,-10.74c2.18,-1.4 4.57,-2.44 7.07,-3.14c1.58,-0.45 -1.35,-5.52 0.28,-5.69c7.93,-0.82 20.75,6.42 26.28,12.41c2.78,3 4.51,6.97 4.89,12.23l-0.3,12.95c1.38,0.42 2.27,1.3 2.63,2.72c0.39,1.58 -0.04,3.8 -1.37,6.81c-0.02,0.06 -0.06,0.12 -0.09,0.17l-5.69,9.37c-2.08,3.44 -4.21,6.9 -6.97,9.61c0.25,0.36 0.5,0.72 0.74,1.09c1.13,1.65 2.27,3.31 3.72,4.78c0.05,0.05 0.09,0.1 0.12,0.15c6.55,4.62 22.49,5.75 28.61,9.16l0.24,0.14l3.58,2.84a64.15,64.15 0 0 0 14.9,-41.2c0,-17.79 -7.21,-33.9 -18.85,-45.55c-11.64,-11.64 -27.75,-18.85 -45.54,-18.85s-33.89,7.22 -45.53,18.86c-11.65,11.64 -18.86,27.75 -18.86,45.54c0,15.65 5.58,30 14.85,41.16zm85.97,-378.51l0.02,0c14.49,0 26.24,11.75 26.24,26.24c0,14.49 -11.75,26.25 -26.24,26.25a26.2,26.2 0 0 1 -16.82,-6.1l-34.85,14.53c0.11,0.99 0.18,1.98 0.19,2.98l36.22,16.69c4.4,-3.11 9.67,-4.81 15.1,-4.81c14.43,0 26.13,11.71 26.13,26.13c0,14.43 -11.7,26.13 -26.13,26.13c-14.42,0 -26.11,-11.71 -26.11,-26.13c0,-2 0.23,-4 0.68,-5.95l-32.19,-14.82c-4.96,5.79 -12.23,9.2 -19.95,9.2c-14.5,0 -26.25,-11.76 -26.25,-26.25s11.75,-26.24 26.25,-26.24c6.51,0 12.79,2.43 17.59,6.78l34.22,-14.27c-0.22,-1.36 -0.33,-2.73 -0.33,-4.12c0,-14.49 11.75,-26.24 26.23,-26.24z"/>
  <g>

  </g>
 </g>
</svg>