
<svg fill="none" width="800px" height="800px" viewBox="0 0 32 32" version="1.1" xmlns="http://www.w3.org/2000/svg">
<title>suitcase2</title>
<path d="M28 29h-24c-1.104 0-2-0.896-2-2v-9h4v3h4v-3h12v3h4v-3h4v9c0 1.104-0.896 2-2 2zM23 20v-4h2v4h-2zM7 20v-4h2v4h-2zM26 15h-4v2h-12v-2h-4v2h-4v-7c0-1.104 
0.896-2 2-2h24c1.104 0 2 0.896 2 2v7h-4v-2zM19 4.979h-6v2.021h-2v-0.979h1v-3.021h8.021v3h0.979v1h-2v-2.021z" fill="url(#paint1_linear)"></path>
<defs>
<linearGradient id="paint0_linear" x1="2.12767" y1="1" x2="30.7018" y2="17.5237" gradientUnits="userSpaceOnUse">
<stop offset="0.259336" stop-color="#FFDB6E"/>
<stop offset="1" stop-color="#FFBC5E"/>
</linearGradient>
<linearGradient id="paint1_linear" x1="1.59976" y1="8.08974e-07" x2="31.8368" y2="17.6727" gradientUnits="userSpaceOnUse">
<stop offset="0.22" stop-color="#FFDB6E"/>
<stop offset="1" stop-color="#FFBC5E"/>
</linearGradient>
</defs>
</svg>