<svg width="32" height="32" xmlns="http://www.w3.org/2000/svg" fill="#000000">
 <defs>
  <linearGradient spreadMethod="pad" y2="0" x2="1" y1="0" x1="0" id="svg_9">
   <stop offset="0" stop-opacity="0.99609" stop-color="#ffdb6e"/>
   <stop offset="1" stop-opacity="0.99609" stop-color="#ffbc5e"/>
  </linearGradient>
 </defs>
 <g>
  <title>Layer 1</title>
  <g id="svg_5">
   <path fill="url(#svg_9)" id="svg_1" d="m27,24a2.9609,2.9609 0 0 0 -1.2854,0.3008l-4.3005,-4.3008l-3.4141,0l0,2l2.5859,0l3.7146,3.7148a2.9665,2.9665 0 0 0 -0.3005,1.2852a3,3 0 1 0 3,-3zm0,4a1,1 0 1 1 1,-1a1.0009,1.0009 0 0 1 -1,1z"/>
   <path fill="url(#svg_9)" id="svg_2" d="m27,13a2.9948,2.9948 0 0 0 -2.8157,2l-6.1843,0l0,2l6.1843,0a2.9947,2.9947 0 1 0 2.8157,-4zm0,4a1,1 0 1 1 1,-1a1.0009,1.0009 0 0 1 -1,1z"/>
   <path fill="url(#svg_9)" id="svg_3" d="m27,2a3.0033,3.0033 0 0 0 -3,3a2.9657,2.9657 0 0 0 0.3481,1.373l-3.7524,3.627l-2.5957,0l0,2l3.4043,0l4.3989,-4.2524a2.9987,2.9987 0 1 0 1.1968,-5.7476zm0,4a1,1 0 1 1 1,-1a1.0009,1.0009 0 0 1 -1,1z"/>
   <path fill="url(#svg_9)" id="svg_4" d="m18,6l2,0l0,-2l-2,0a3.9756,3.9756 0 0 0 -3,1.3823a3.9756,3.9756 0 0 0 -3,-1.3823l-1,0a9.01,9.01 0 0 0 -9,9l0,6a9.01,9.01 0 0 0 9,9l1,0a3.9756,3.9756 0 0 0 3,-1.3823a3.9756,3.9756 0 0 0 3,1.3823l2,0l0,-2l-2,0a2.0023,2.0023 0 0 1 -2,-2l0,-16a2.0023,2.0023 0 0 1 2,-2zm-6,20l-1,0a7.0047,7.0047 0 0 1 -6.92,-6l1.92,0l0,-2l-2,0l0,-4l3,0a3.0033,3.0033 0 0 0 3,-3l0,-2l-2,0l0,2a1.0009,1.0009 0 0 1 -1,1l-2.92,0a7.0047,7.0047 0 0 1 6.92,-6l1,0a2.0023,2.0023 0 0 1 2,2l0,4l-2,0l0,2l2,0l0,4l-2,0a3.0033,3.0033 0 0 0 -3,3l0,2l2,0l0,-2a1.0009,1.0009 0 0 1 1,-1l2,0l0,4a2.0023,2.0023 0 0 1 -2,2z"/>
  </g>
 </g>
</svg>